<?xml version="1.0" encoding="UTF-8" standalone="no"?>
<!-- Created with Inkscape (http://www.inkscape.org/) -->

<svg
   xmlns:dc="http://purl.org/dc/elements/1.1/"
   xmlns:cc="http://creativecommons.org/ns#"
   xmlns:rdf="http://www.w3.org/1999/02/22-rdf-syntax-ns#"
   xmlns:svg="http://www.w3.org/2000/svg"
   xmlns="http://www.w3.org/2000/svg"
   version="1.1"
   width="744.09448"
   height="1052.3622"
   id="svg2">
  <defs
     id="defs4">
    <filter
       x="0"
       y="0"
       width="1"
       height="1"
       color-interpolation-filters="sRGB"
       id="filter3818">
      <feFlood
         flood-color="rgb(128,128,128)"
         flood-opacity="0"
         result="result1"
         id="feFlood3820" />
      <feBlend
         in2="SourceGraphic"
         mode="normal"
         result="result2"
         id="feBlend3822" />
      <feComposite
         in2="SourceGraphic"
         operator="arithmetic"
         k1="0"
         k2="1"
         k3="0"
         k4="0"
         result="result3"
         id="feComposite3824" />
      <feComposite
         in2="SourceGraphic"
         operator="in"
         result="fbSourceGraphic"
         id="feComposite3826" />
      <feColorMatrix
         id="feColorMatrix3828"
         values="0 0 0 -1 0 0 0 0 -1 0 0 0 0 -1 0 0 0 0 1 0"
         in="fbSourceGraphic"
         result="fbSourceGraphicAlpha" />
      <feFlood
         in="fbSourceGraphic"
         flood-color="rgb(128,128,128)"
         flood-opacity="0"
         result="result1"
         id="feFlood3830" />
      <feBlend
         in2="fbSourceGraphic"
         mode="normal"
         result="result2"
         id="feBlend3832" />
      <feComposite
         in2="fbSourceGraphic"
         operator="arithmetic"
         k1="0"
         k2="1"
         k3="0"
         k4="0"
         result="result4"
         id="feComposite3834" />
      <feComposite
         in2="fbSourceGraphic"
         operator="in"
         id="feComposite3836" />
    </filter>
  </defs>
  <metadata
     id="metadata7">
    <rdf:RDF>
      <cc:Work
         rdf:about="">
        <dc:format>image/svg+xml</dc:format>
        <dc:type
           rdf:resource="http://purl.org/dc/dcmitype/StillImage" />
        <dc:title></dc:title>
      </cc:Work>
    </rdf:RDF>
  </metadata>
  <g
     id="layer1">
    <path
       d="m 361.54347,533.74514 c -0.81028,-1.00723 -7.25904,-9.87841 -14.33059,-19.71372 -7.07155,-9.83532 -16.24253,-22.53613 -20.37996,-28.22403 -4.13743,-5.68789 -8.20462,-11.31115 -9.03821,-12.49613 -0.83359,-1.18498 -2.80266,-3.89965 -4.37571,-6.03261 -1.57305,-2.13296 -4.00866,-5.52631 -5.41246,-7.54077 -1.40381,-2.01447 -4.4274,-6.23958 -6.7191,-9.38914 -2.92476,-4.0196 -4.10088,-5.97828 -3.94581,-6.57125 0.31384,-1.20015 1.62057,-1.05616 4.06504,0.44795 1.15551,0.71098 2.19154,1.2927 2.3023,1.2927 0.11077,0 1.46861,0.77562 3.01743,1.72361 1.54882,0.94798 2.91889,1.7236 3.04459,1.7236 0.12571,0 1.28949,0.67867 2.58619,1.50815 1.29669,0.82949 2.45496,1.50816 2.57392,1.50816 0.18741,0 9.61252,5.33335 11.4013,6.4516 1.56016,0.97533 5.61042,3.29359 8.18712,4.68608 1.54047,0.83249 4.01618,2.25433 5.50158,3.15964 1.48539,0.90531 2.79084,1.64602 2.90099,1.64602 0.11015,0 1.4156,0.74006 2.90099,1.64458 1.4854,0.90452 4.18266,2.44484 5.99391,3.42294 1.81125,0.9781 4.33202,2.41948 5.60171,3.20306 1.26969,0.78358 3.19866,1.88851 4.28659,2.4554 l 1.97805,1.03072 2.76186,-1.52137 c 2.38879,-1.31586 11.25637,-6.36123 15.90434,-9.04907 0.82948,-0.47967 2.57463,-1.44726 3.87811,-2.1502 1.30347,-0.70294 2.66081,-1.52136 3.01631,-1.8187 0.35549,-0.29735 1.90673,-1.21473 3.44721,-2.03864 2.52275,-1.34926 6.48463,-3.60863 8.18712,-4.66893 0.35549,-0.2214 2.5854,-1.50405 4.95536,-2.85033 2.36995,-1.34628 5.93657,-3.38633 7.92578,-4.53345 1.98921,-1.14711 3.67541,-2.08566 3.74711,-2.08566 0.0717,0 2.32226,-1.28056 5.00126,-2.84568 5.20537,-3.04107 7.36173,-3.63298 7.58356,-2.08164 0.11431,0.79919 -5.15569,8.45317 -15.26011,22.16336 -4.6209,6.26987 -8.15502,11.12475 -9.8594,13.54406 -1.87205,2.65727 -6.91614,9.63101 -10.92972,15.11087 -1.38867,1.89596 -4.55299,6.25884 -7.03188,9.69527 -20.71278,28.71367 -22.44094,31.02488 -23.19823,31.02488 -0.43743,0 -1.45828,-0.8241 -2.26855,-1.83133 z m -3.75529,-62.21537 c -5.71778,-3.26685 -12.65552,-7.31364 -14.21974,-8.29438 -0.59249,-0.37148 -1.75592,-1.05686 -2.58541,-1.52306 -2.44847,-1.37612 -5.70802,-3.17929 -7.32531,-4.05233 -0.82949,-0.44776 -3.71407,-2.10247 -6.4102,-3.67713 -2.69612,-1.57466 -4.97109,-2.86301 -5.0555,-2.86301 -0.0844,0 -1.42067,-0.77563 -2.96949,-1.72361 -1.54882,-0.94798 -2.89135,-1.7236 -2.98339,-1.7236 -0.17507,0 -4.04667,-2.22996 -13.28313,-7.65079 -6.02453,-3.53576 -6.40686,-4.07665 -4.63774,-6.56115 0.47093,-0.66136 4.37541,-6.79932 8.6766,-13.6399 4.3012,-6.84058 9.54901,-15.15209 11.66179,-18.47003 2.11279,-3.31794 4.07396,-6.42043 4.35815,-6.89442 0.2842,-0.47399 1.11514,-1.73438 1.84654,-2.80086 0.73139,-1.06648 2.7674,-4.23914 4.52446,-7.05035 1.75706,-2.81122 3.48551,-5.56073 3.841,-6.11004 0.3555,-0.5493 2.56954,-4.06638 4.92009,-7.81573 2.35055,-3.74935 4.43503,-6.88163 4.63218,-6.96063 0.19716,-0.079 0.35846,-0.33014 0.35846,-0.55808 0,-0.22795 0.97584,-1.8606 2.16855,-3.6281 1.1927,-1.76751 2.28865,-3.55238 2.43545,-3.96638 0.1468,-0.414 0.51486,-1.04402 0.81792,-1.40004 0.30306,-0.35602 0.81463,-1.13165 1.13682,-1.72361 0.72879,-1.33903 5.15329,-8.21436 6.83852,-10.62655 0.68936,-0.98673 1.25338,-1.98857 1.25338,-2.22633 0,-0.23775 0.15565,-0.49691 0.3459,-0.57591 0.19024,-0.079 1.07715,-1.35602 1.9709,-2.83783 3.30214,-5.47483 3.64986,-5.42339 7.91883,1.17162 1.83576,2.83601 4.50118,6.94932 5.92316,9.14068 1.42197,2.19136 2.73411,4.28234 2.91587,4.64662 0.18175,0.36427 0.86042,1.4731 1.50815,2.46405 1.00277,1.53413 5.28603,8.21055 7.42576,11.57476 0.35549,0.55892 2.51844,3.98284 4.80653,7.6087 2.28808,3.62586 5.34033,8.43458 6.78277,10.68603 1.44244,2.25146 4.32107,6.77363 6.3969,10.04927 2.07586,3.27564 4.45297,7.00226 5.28246,8.28137 0.82948,1.27911 2.26387,3.54364 3.18746,5.03227 0.92364,1.48863 2.69481,4.25785 3.93598,6.15382 1.24112,1.89596 4.14712,6.45274 6.45774,10.12617 2.31062,3.67344 4.9508,7.79173 5.86702,9.15178 2.44825,3.63402 2.30644,4.25398 -1.45808,6.37459 -1.71822,0.96789 -3.8027,2.16088 -4.63219,2.65107 -0.82948,0.4902 -2.96244,1.67096 -4.73991,2.62393 -1.77747,0.95296 -3.52262,1.94643 -3.87811,2.2077 -0.35549,0.26127 -1.03416,0.68665 -1.50815,0.94527 -3.75117,2.04677 -6.27866,3.48281 -7.68978,4.36906 -0.91144,0.57244 -3.14135,1.83235 -4.95536,2.7998 -1.81401,0.96744 -3.39516,1.87434 -3.51366,2.01531 -0.11849,0.14098 -0.60326,0.46793 -1.07725,0.72656 -4.27592,2.33308 -6.09738,3.35415 -6.46351,3.62333 -0.237,0.17423 -1.59434,0.95585 -3.01631,1.73693 -1.42198,0.78108 -3.26408,1.79392 -4.09356,2.25075 -0.82949,0.45684 -2.38073,1.36674 -3.44721,2.02202 -1.06648,0.65528 -3.19944,1.89895 -4.73991,2.7637 -1.54048,0.86476 -3.57648,2.0461 -4.52447,2.6252 -3.00864,1.83794 -4.20151,2.39061 -5.12929,2.37648 -0.49683,-0.008 -3.13323,-1.28781 -5.85868,-2.84499 z"
       id="path3838"
       style="fill:#000000" />
  </g>
</svg>
