# Alias OBJ Model File
# Exported from SketchUp, (c) 2000-2012 Trimble Navigation Limited
# File units = millimeters

mtllib solar_plantoid5b.mtl

g Mesh1 Group1 Model

usemtl FrontColor
v -86.3029 -20 40.4794
vt -1.39157 0.787402
vn -1.50148e-016 -3.97158e-015 1
v -77.5783 -20 40.4794
vt -1.73505 0.787402
v -86.3029 -14.5483 40.4794
vt -1.39157 0.572768
f 1/1/1 2/2/1 3/3/1

v -86.3029 -20 180.479
vt 1.39157 7.93016e-018
vn -2.59724e-015 1 -1.76605e-016
v -77.5783 -20 180.479
vt 1.73505 7.93016e-018
vt 1.73505 5.51181
vt 1.39157 5.51181
f 4/4/2 5/5/2 2/6/2 1/7/2 

v -86.3029 6.42751e-014 180.479
vt -1.39157 6.49621e-016
vn 2.32616e-015 2.27817e-016 1
v -106.826 2.36199e-014 180.479
vt -0.583579 2.82264e-016
v -106.826 -9.26238 180.479
vt -0.583579 0.364661
v -100.781 -13.0396 180.479
vt -0.821567 0.513372
v -100.215 -12.1347 180.479
vt -0.84383 0.477742
v -32.0699 -54.7166 180.479
vt -3.52672 2.1542
v -32.6354 -55.6216 180.479
vt -3.50446 2.18983
v -18.4847 -64.464 180.479
vt -4.06157 2.53795
v 4.51195e-013 2.25372e-013 180.479
vt -4.78932 2.5829e-015
v -11.3029 2.46702e-013 180.479
vt -4.34432 6.59264e-016
v -11.3029 -6.39275 180.479
vt -4.34432 0.251683
v -8.48346 -6.39275 180.479
vt -4.45532 0.251683
v -11.3029 -16.2252 180.479
vt -4.34432 0.638787
v -11.3029 -20 180.479
vt -4.34432 0.787402
v -12.3853 -20 180.479
vt -4.30171 0.787402
v -22.2915 -54.5471 180.479
vt -3.9117 2.14752
v -86.3029 -14.5483 180.479
v -99.3545 -6.39275 180.479
vt -0.877723 0.251683
v -86.3029 -6.39275 180.479
vt -1.39157 0.251683
f 6/8/3 7/9/3 8/10/3 9/11/3 10/12/3 11/13/3 12/14/3 13/15/3 14/16/3 15/17/3 16/18/3 17/19/3 18/20/3 19/21/3 20/22/3 21/23/3 5/2/3 4/1/3 22/3/3 23/24/3 24/25/3 

v -106.826 -6.43597e-015 -1.12799e-013
vt 0.583579 7.10549
vn -1.97801e-015 1 -2.32207e-016
vt 0.583579 5.32907e-015
vt 1.39157 8.41859e-034
v -86.3029 4.09604e-014 40.4794
v -11.3029 1.80056e-013 40.4794
vt 4.34432 5.51181
vt 4.34432 -8.7265e-032
vt 4.78932 2.56942e-032
v 2.25597e-014 1.95316e-013 -2.70717e-013
vt 4.78932 7.10549
f 25/26/4 7/27/4 6/28/4 26/7/4 27/29/4 15/30/4 14/31/4 28/32/4 

vt 1.13912e-015 7.10549
vn -1 1.18329e-030 2.43563e-015
v -106.826 -9.26238 -1.12799e-013
vt -0.364661 7.10549
vt -0.364661 5.32907e-015
vt 1.13912e-015 5.32907e-015
f 25/33/5 29/34/5 8/35/5 7/36/5 

vt 4.78932 2.58826e-015
vn -2.38609e-015 -1.6578e-016 -1
v -18.4847 -64.464 -2.25597e-013
vt 4.06157 2.53795
v -32.6354 -55.6216 -1.80478e-013
vt 3.50446 2.18983
v -32.0699 -54.7166 -1.80478e-013
vt 3.52672 2.1542
v -100.215 -12.1347 -2.25597e-014
vt 0.84383 0.477742
v -100.781 -13.0396 -2.25597e-014
vt 0.821567 0.513372
vt 0.583579 0.364661
vt 0.583579 2.8762e-016
f 28/37/6 30/38/6 31/39/6 32/40/6 33/41/6 34/42/6 29/43/6 25/44/6 

vt 1.32011 7.10549
vn 0.961262 -0.275637 -2.32701e-015
vt -1.32011 7.10549
vt -1.32011 -1.45653e-016
vt 1.32011 -1.45653e-016
f 30/45/7 28/46/7 14/47/7 13/48/7 

vt -4.78932 -1.72563e-031
vn -0.529919 -0.848048 1.36665e-015
vt -4.13238 -4.93038e-032
vt -4.13238 7.10549
vt -4.78932 7.10549
f 13/49/8 12/50/8 31/51/8 30/52/8 

vt 0.0420137 -5.68173e-015
vn -0.848048 0.529919 2.49248e-015
vt 0.0420137 7.10549
vt -4.56968e-013 7.10549
vt -4.56968e-013 -2.12901e-015
f 11/53/9 32/54/9 31/55/9 12/56/9 

vt -4.13238 -3.55655e-015
vn -0.529919 -0.848048 1.52324e-015
v -56.6765 -39.3407 68.7431
vt -2.99004 4.39906
f 11/57/10 35/58/10 32/51/10

vt -0.968774 -3.83673e-018
f 35/58/10 11/57/10 10/59/10

v -58.469 -38.2207 71.4976
vt -2.90682 4.29062
f 35/58/10 10/59/10 36/60/10

v -60.8049 -36.761 73.6113
vt -2.79838 4.20741
f 36/60/10 10/59/10 37/61/10

v -63.5252 -35.0612 74.9399
vt -2.67209 4.1551
f 37/61/10 10/59/10 38/62/10

v -66.4444 -33.2371 75.3931
vt -2.53657 4.13725
f 38/62/10 10/59/10 39/63/10

v -69.3637 -31.4129 74.9399
vt -2.40104 4.1551
f 10/59/10 40/64/10 39/63/10

v -72.084 -29.7131 73.6113
vt -2.27475 4.20741
f 40/64/10 10/59/10 41/65/10

v -74.4199 -28.2534 71.4976
vt -2.16631 4.29062
f 41/65/10 10/59/10 42/66/10

v -76.2124 -27.1334 68.7431
vt -2.0831 4.39906
f 42/66/10 10/59/10 43/67/10

v -77.3392 -26.4293 65.5354
vt -2.03079 4.52535
f 43/67/10 10/59/10 44/68/10

vt -0.968774 7.10549
f 44/68/10 10/59/10 33/69/10

vt -0.0420137 7.10549
vn 0.848048 -0.529919 -2.00627e-015
vt -0.0420137 -2.80813e-017
vt -1.12965e-013 -2.80813e-017
vt -1.12965e-013 7.10549
f 33/70/11 10/71/11 9/72/11 34/73/11 

vt -0.968774 -2.40741e-034
vn -0.529919 -0.848048 1.4318e-015
vt -0.688144 5.32907e-015
vt -0.688144 7.10549
f 9/74/12 8/75/12 29/76/12 34/69/12 

v -77.7235 -26.1891 62.0931
vt -2.01294 4.66088
f 44/68/10 33/69/10 45/77/10

v -77.3392 -26.4293 58.6508
vt -2.03079 4.7964
f 45/77/10 33/69/10 46/78/10

v -76.2124 -27.1334 55.4431
vt -2.0831 4.92269
f 46/78/10 33/69/10 47/79/10

v -74.4199 -28.2534 52.6886
vt -2.16631 5.03113
f 47/79/10 33/69/10 48/80/10

v -72.084 -29.7131 50.575
vt -2.27475 5.11435
f 48/80/10 33/69/10 49/81/10

v -69.3637 -31.4129 49.2463
vt -2.40104 5.16666
f 49/81/10 33/69/10 50/82/10

v -66.4444 -33.2371 48.7931
vt -2.53657 5.1845
f 50/82/10 33/69/10 51/83/10

f 32/51/10 51/83/10 33/69/10

v -63.5252 -35.0612 49.2463
vt -2.67209 5.16666
f 32/51/10 52/84/10 51/83/10

v -60.8049 -36.761 50.575
vt -2.79838 5.11435
f 32/51/10 53/85/10 52/84/10

v -58.469 -38.2207 52.6886
vt -2.90682 5.03113
f 32/51/10 54/86/10 53/85/10

v -56.6765 -39.3407 55.4431
vt -2.99004 4.92269
f 32/51/10 55/87/10 54/86/10

v -55.5497 -40.0448 58.6508
vt -3.04235 4.7964
f 32/51/10 56/88/10 55/87/10

v -55.1654 -40.285 62.0931
vt -3.06019 4.66088
f 32/51/10 57/89/10 56/88/10

v -55.5497 -40.0448 65.5354
vt -3.04235 4.52535
f 32/51/10 58/90/10 57/89/10

f 32/51/10 35/58/10 58/90/10

vt 0.0420137 5.34514
vn -0.819152 0.511863 -0.258819
vt 0.0420137 5.20844
vn -0.734431 0.458924 -0.5
v -53.8544 -34.8244 68.7431
vt 0.251683 5.20844
v -52.7276 -35.5285 65.5354
vt 0.251683 5.34514
f 58/91/13 35/92/14 59/93/14 60/94/13 

vt 0.0420137 5.31023
vt 0.0420137 5.17354
vn -0.599661 0.37471 -0.707107
v -55.6468 -33.7043 71.4976
vt 0.251683 5.17354
vt 0.251683 5.31023
f 35/95/14 36/96/15 61/97/15 59/98/14 

vt 0.0420137 4.9181
vt 0.0420137 4.78141
vn -0.424024 0.26496 -0.866025
v -57.9828 -32.2447 73.6113
vt 0.251683 4.78141
vt 0.251683 4.9181
f 36/99/15 37/100/16 62/101/16 61/102/15 

vt 0.0420137 4.19547
vt 0.0420137 4.05877
vn -0.219491 0.137153 -0.965926
v -60.7031 -30.5448 74.9399
vt 0.251683 4.05877
vt 0.251683 4.19547
f 37/103/16 38/104/17 63/105/17 62/106/16 

vt 0.0420137 3.19158
vt 0.0420137 3.05488
vn -2.0297e-015 5.89334e-016 -1
v -63.6223 -28.7207 75.3931
vt 0.251683 3.05488
vt 0.251683 3.19158
f 38/107/17 39/108/18 64/109/18 63/110/17 

vt -0.0420137 -1.97484
vt -0.0420137 -1.83815
vn 0.219491 -0.137153 -0.965926
v -66.5415 -26.8966 74.9399
vt -0.251683 -1.83815
vt -0.251683 -1.97484
f 39/111/18 40/112/19 65/113/19 64/114/18 

vt -0.0420137 -0.628188
vt -0.0420137 -0.491495
vn 0.424024 -0.26496 -0.866025
v -69.2618 -25.1967 73.6113
vt -0.251683 -0.491495
vt -0.251683 -0.628188
f 40/115/19 41/116/20 66/117/20 65/118/19 

vt -0.0420137 0.756622
vt -0.0420137 0.893315
vn 0.599661 -0.37471 -0.707107
v -71.5978 -23.7371 71.4976
vt -0.251683 0.893315
vt -0.251683 0.756622
f 41/119/20 42/120/21 67/121/21 66/122/20 

vt -0.0420137 2.08521
vt -0.0420137 2.2219
vn 0.734431 -0.458924 -0.5
v -73.3902 -22.617 68.7431
vt -0.251683 2.2219
vt -0.251683 2.08521
f 42/123/21 43/124/22 68/125/22 67/126/21 

vt -0.0420137 3.26704
vt -0.0420137 3.40373
vn 0.819152 -0.511863 -0.258819
v -74.517 -21.9129 65.5354
vt -0.251683 3.40373
vt -0.251683 3.26704
f 43/127/22 44/128/23 69/129/23 68/130/22 

vt -0.0420137 4.22157
vt -0.0420137 4.35826
vn 0.848048 -0.529919 -1.97728e-015
v -74.9013 -21.6728 62.0931
vt -0.251683 4.35826
vt -0.251683 4.22157
f 44/131/23 45/132/24 70/133/24 69/134/23 

vt -0.0420137 4.88374
vt -0.0420137 5.02044
vn 0.819152 -0.511863 0.258819
v -74.517 -21.9129 58.6508
vt -0.251683 5.02044
vt -0.251683 4.88374
f 45/135/24 46/136/25 71/137/25 70/138/24 

vt -0.0420137 5.20844
vt -0.0420137 5.34514
vn 0.734431 -0.458924 0.5
v -73.3902 -22.617 55.4431
vt -0.251683 5.34514
vt -0.251683 5.20844
f 46/139/25 47/140/26 72/141/26 71/142/25 

vt -0.0420137 5.17354
vt -0.0420137 5.31023
vn 0.599661 -0.37471 0.707107
v -71.5978 -23.7371 52.6886
vt -0.251683 5.31023
vt -0.251683 5.17354
f 47/143/26 48/144/27 73/145/27 72/146/26 

vt -0.0420137 4.78141
vt -0.0420137 4.9181
vn 0.424024 -0.26496 0.866025
v -69.2618 -25.1967 50.575
vt -0.251683 4.9181
vt -0.251683 4.78141
f 48/147/27 49/148/28 74/149/28 73/150/27 

vt -0.0420137 4.05877
vt -0.0420137 4.19547
vn 0.219491 -0.137153 0.965926
v -66.5415 -26.8966 49.2463
vt -0.251683 4.19547
vt -0.251683 4.05877
f 49/151/28 50/152/29 75/153/29 74/154/28 

vt -0.0420137 3.05488
vt -0.0420137 3.19158
vn -2.87644e-015 2.46213e-015 1
v -63.6223 -28.7207 48.7931
vt -0.251683 3.19158
vt -0.251683 3.05488
f 50/155/29 51/156/30 76/157/30 75/158/29 

vt 0.0420137 -1.83815
vt 0.0420137 -1.97484
vn -0.219491 0.137153 0.965926
v -60.7031 -30.5448 49.2463
vt 0.251683 -1.97484
vt 0.251683 -1.83815
f 51/159/30 52/160/31 77/161/31 76/162/30 

vt 0.0420137 -0.491495
vt 0.0420137 -0.628188
vn -0.424024 0.26496 0.866025
v -57.9828 -32.2447 50.575
vt 0.251683 -0.628188
vt 0.251683 -0.491495
f 52/163/31 53/164/32 78/165/32 77/166/31 

vt 0.0420137 0.893315
vt 0.0420137 0.756622
vn -0.599661 0.37471 0.707107
v -55.6468 -33.7043 52.6886
vt 0.251683 0.756622
vt 0.251683 0.893315
f 53/167/32 54/168/33 79/169/33 78/170/32 

vt 0.0420137 2.2219
vt 0.0420137 2.08521
vn -0.734431 0.458924 0.5
v -53.8544 -34.8244 55.4431
vt 0.251683 2.08521
vt 0.251683 2.2219
f 54/171/33 55/172/34 80/173/34 79/174/33 

vt 0.0420137 3.40373
vt 0.0420137 3.26704
vn -0.819152 0.511863 0.258819
v -52.7276 -35.5285 58.6508
vt 0.251683 3.26704
vt 0.251683 3.40373
f 55/175/34 56/176/35 81/177/35 80/178/34 

vt 0.0420137 4.35826
vt 0.0420137 4.22157
vn -0.848048 0.529919 1.97728e-015
v -52.3433 -35.7686 62.0931
vt 0.251683 4.22157
vt 0.251683 4.35826
f 56/179/35 57/180/36 82/181/36 81/182/35 

vt 0.0420137 5.02044
vt 0.0420137 4.88374
vt 0.251683 4.88374
vt 0.251683 5.02044
f 57/183/36 58/184/13 60/185/13 82/186/36 

vt 3.04235 4.52535
vn 0.529919 0.848048 -1.47787e-015
v -22.2915 -54.5471 11.2652
vt 4.45532 6.66198
vt 3.06019 4.66088
f 60/187/37 83/188/37 82/189/37

vt 2.99004 4.39906
f 59/190/37 83/188/37 60/187/37

vt 1.88867 -1.1566e-017
f 5/191/37 83/188/37 59/190/37

vt 4.45532 -3.56428e-015
f 83/188/37 5/191/37 21/192/37

vt -0.98612 -2.20037e-015
vn -0.961262 0.275637 1.98464e-015
vt 0.428812 1.35235e-015
v -12.3853 -20 40.4794
vt 0.428812 5.51181
v -11.3029 -16.2252 40.4794
vt 0.583415 5.51181
vt 0.583415 1.35235e-015
vt 0.98612 1.35235e-015
v -8.48346 -6.39275 11.2652
vt 0.98612 6.66198
vt -0.98612 6.66198
f 21/193/38 20/194/38 84/195/38 85/196/38 18/197/38 17/198/38 86/199/38 83/200/38 

v -11.3029 -20 40.4794
vn -2.43563e-015 1 -1.66533e-016
vt 4.30171 5.51181
vt 4.30171 0
vt 4.34432 0
f 87/29/39 84/201/39 20/202/39 19/203/39 

vn 2.32778e-014 -5.80987e-015 1
f 87/21/40 85/20/40 84/22/40

vt -0.787402 -7.00048e-016
vn -1 3.54078e-015 2.59677e-015
vt -0.638787 -7.00048e-016
vt -0.638787 5.51181
vt -0.787402 5.51181
f 19/204/41 18/205/41 85/206/41 87/207/41 

vt -4.45532 1.73188e-017
vn 2.01206e-015 -1 2.35345e-016
vt -4.34432 1.73188e-017
v -11.3029 -6.39275 40.4794
vt -4.34432 5.51181
v -86.3029 -6.39275 40.4794
vt -1.39157 5.51181
vt -1.39157 1.73188e-017
vt -0.877723 1.73188e-017
v -99.3545 -6.39275 11.2652
vt -0.877723 6.66198
vt -4.45532 6.66198
f 17/208/42 16/209/42 88/210/42 89/211/42 24/212/42 23/213/42 90/214/42 86/215/42 

vt -2.36525e-015 5.51181
vn -1 -2.43563e-015 2.43563e-015
vt -0.251683 5.51181
vt -0.251683 4.85841e-032
vt -6.59264e-016 4.85841e-032
f 27/216/43 88/217/43 16/218/43 15/219/43 

vn 2.43563e-015 1.66533e-016 1
vt -4.34432 2.36525e-015
f 26/8/44 89/25/44 88/18/44 27/220/44 

vt 6.49621e-016 1.55624e-032
vn 1 2.43563e-015 -2.43563e-015
vt 0.251683 1.55624e-032
vt 0.251683 5.51181
vt 6.49621e-016 5.51181
f 6/221/45 24/222/45 89/223/45 26/224/45 

vt 0.877723 -1.1566e-017
vt 1.48364 5.51181
vt 0.877723 6.66198
f 23/225/37 3/226/37 90/227/37

vt 1.48364 -1.1566e-017
f 3/226/37 23/225/37 22/228/37

vt 0.787402 5.51181
vn 1 -5.84059e-015 -2.75791e-015
vt 0.572768 5.51181
vt 0.572768 -4.48476e-016
vt 0.787402 -4.48476e-016
f 1/229/46 3/230/46 22/231/46 4/232/46 

vt 1.88867 5.51181
f 90/227/37 3/226/37 2/233/37

f 90/227/37 2/233/37 83/188/37

vt 2.53657 5.1845
f 76/234/37 83/188/37 2/233/37

vt 2.67209 5.16666
f 77/235/37 83/188/37 76/234/37

vt 2.79838 5.11435
f 78/236/37 83/188/37 77/235/37

vt 2.90682 5.03113
f 79/237/37 83/188/37 78/236/37

vt 2.99004 4.92269
f 80/238/37 83/188/37 79/237/37

vt 3.04235 4.7964
f 81/239/37 83/188/37 80/238/37

f 82/189/37 83/188/37 81/239/37

vt 2.40104 5.16666
f 2/233/37 75/240/37 76/234/37

vt 2.27475 5.11435
f 2/233/37 74/241/37 75/240/37

vt 2.16631 5.03113
f 2/233/37 73/242/37 74/241/37

vt 2.0831 4.92269
f 2/233/37 72/243/37 73/242/37

vt 2.03079 4.7964
f 2/233/37 71/244/37 72/243/37

vt 2.01294 4.66088
f 2/233/37 70/245/37 71/244/37

vt 2.03079 4.52535
f 2/233/37 69/246/37 70/245/37

f 5/191/37 69/246/37 2/233/37

vt 2.0831 4.39906
f 69/246/37 5/191/37 68/247/37

vt 2.16631 4.29062
f 68/247/37 5/191/37 67/248/37

vt 2.27475 4.20741
f 67/248/37 5/191/37 66/249/37

vt 2.40104 4.1551
f 66/249/37 5/191/37 65/250/37

vt 2.53657 4.13725
f 65/250/37 5/191/37 64/251/37

vt 2.67209 4.1551
f 5/191/37 63/252/37 64/251/37

vt 2.79838 4.20741
f 5/191/37 62/253/37 63/252/37

vt 2.90682 4.29062
f 5/191/37 61/254/37 62/253/37

f 5/191/37 59/190/37 61/254/37

f 83/23/44 86/19/44 90/24/44

